<svg height="512pt" viewBox="-61 0 512 512" width="512pt" xmlns="http://www.w3.org/2000/svg"><path d="m366.894531 512h-344.402343c-12.421876 0-22.492188-10.070312-22.492188-22.492188v-467.015624c0-12.421876 10.070312-22.492188 22.492188-22.492188h272.816406l94.082031 89.453125v400.054687c-.003906 12.421876-10.074219 22.492188-22.496094 22.492188zm0 0" fill="#f4f4f4"/><path d="m295.308594 0h-40.449219l94.078125 89.453125v400.054687c0 12.421876-10.070312 22.492188-22.492188 22.492188h40.449219c12.421875 0 22.492188-10.070312 22.492188-22.492188v-400.054687zm0 0" fill="#e8e8e8"/><path d="m348.9375 50.992188-53.628906-50.992188h-272.816406c-12.421876 0-22.492188 10.070312-22.492188 22.492188v28.5zm0 0" fill="#5fc1e8"/><path d="m265.777344 50.992188h83.160156l-53.628906-50.992188h-29.53125zm0 0" fill="#56aed1"/><path d="m295.308594 0v66.960938c0 12.421874 10.070312 22.492187 22.492187 22.492187h71.585938zm0 0" fill="#dedcdd"/><path d="m0 369.527344v119.980468c0 12.421876 10.070312 22.492188 22.492188 22.492188h344.402343c12.421875 0 22.492188-10.070312 22.492188-22.492188v-119.980468zm0 0" fill="#5fc1e8"/><path d="m348.9375 489.507812c0 12.421876-10.070312 22.492188-22.492188 22.492188h40.449219c.390625 0 .777344-.011719 1.160157-.027344 1.53125-.078125 3.023437-.3125 4.460937-.679687.71875-.1875 1.425781-.40625 2.113281-.65625.6875-.253907 1.363282-.539063 2.019532-.855469 2.292968-1.105469 4.371093-2.589844 6.152343-4.371094.507813-.507812.992188-1.039062 1.453125-1.59375.226563-.28125.449219-.5625.667969-.851562 1.292969-1.730469 2.34375-3.65625 3.101563-5.722656.253906-.691407.472656-1.394532.65625-2.113282.464843-1.796875.710937-3.679687.710937-5.621094v-119.980468h-40.449219v119.980468zm0 0" fill="#56aed1"/><g fill="#495663"><path d="m153.28125 426.652344c.957031 1.007812 2.308594 1.636718 3.808594 1.636718 4.617187 0 6.984375-5.578124 3.746094-8.921874-18.921876-19.53125-52.496094-5.976563-52.496094 21.433593 0 27.347657 33.550781 40.992188 52.496094 21.433594.921874-.953125 1.496093-2.25 1.496093-3.679687 0-4.753907-5.820312-7.019532-9.050781-3.605469-12.507812 13.222656-34.257812 4.054687-34.257812-14.148438 0-18.210937 21.746093-27.371093 34.257812-14.148437zm0 0"/><path d="m197.0625 461.203125c-5.847656 0-11.59375-2.167969-16.683594-4.75-3.433594-1.753906-7.503906.761719-7.503906 4.609375 0 1.945312 1.070312 3.636719 2.65625 4.523438 19.949219 11.070312 45.265625 5.84375 45.265625-12 0-13.222657-12.960937-15.941407-24.082031-17.953126-7.371094-1.335937-12.347656-2.015624-12.371094-6.867187-.019531-4.082031 3.523438-8.371094 12.457031-8.371094 5.96875 0 11.203125 1.917969 15.816407 4.410157 3.382812 1.832031 7.585937-.601563 7.585937-4.523438 0-1.964844-1.101563-3.671875-2.71875-4.535156-5.816406-3.101563-12.851563-5.597656-20.15625-5.597656-10.683594 0-23.644531 5.34375-23.667969 19.0625-.039062 23.523437 36.394532 13.351562 36.492188 24.71875.054687 6.136718-8.886719 7.273437-13.089844 7.273437zm0 0"/><path d="m257.21875 461.203125c-5.847656 0-11.59375-2.167969-16.683594-4.75-3.433594-1.753906-7.503906.761719-7.503906 4.609375 0 1.945312 1.074219 3.636719 2.65625 4.523438 6.597656 3.660156 14.265625 5.863281 21.179688 5.863281 8.671874 0 24.082031-3.414063 24.082031-17.863281 0-13.222657-12.960938-15.941407-24.082031-17.953126-7.367188-1.335937-12.34375-2.015624-12.371094-6.867187-.015625-4.082031 3.527344-8.371094 12.460937-8.371094 10.320313 0 15.046875 5.027344 18.261719 5.027344 5.3125 0 7.144531-7.15625 2.421875-9.675781-23.691406-12.632813-43.796875-2.144532-43.824219 13.464844-.039062 23.523437 36.394532 13.355468 36.492188 24.71875.054687 6.136718-8.886719 7.273437-13.089844 7.273437zm0 0"/></g></svg>