<svg height="512pt" viewBox="-61 0 512 512" width="512pt" xmlns="http://www.w3.org/2000/svg"><path d="m364.875 512h-342.382812c-12.421876 0-22.492188-10.070312-22.492188-22.492188v-467.015624c0-12.421876 10.070312-22.492188 22.492188-22.492188h272.816406l94.082031 89.453125v398.03125c-.003906 13.539063-10.976563 24.515625-24.515625 24.515625zm0 0" fill="#f4f4f4"/><path d="m295.308594 0h-40.449219l94.078125 89.453125v400.054687c0 12.421876-10.070312 22.492188-22.492188 22.492188h40.449219c12.421875 0 22.492188-10.070312 22.492188-22.492188v-400.054687zm0 0" fill="#e8e8e8"/><path d="m348.9375 50.992188-53.628906-50.992188h-272.816406c-12.421876 0-22.492188 10.070312-22.492188 22.492188v28.5zm0 0" fill="#fba826"/><path d="m265.777344 50.992188h83.160156l-53.628906-50.992188h-29.53125zm0 0" fill="#e09721"/><path d="m295.308594 0v66.960938c0 12.421874 10.070312 22.492187 22.492187 22.492187h71.585938zm0 0" fill="#dedcdd"/><path d="m0 369.527344v119.980468c0 12.421876 10.070312 22.492188 22.492188 22.492188h344.402343c12.421875 0 22.492188-10.070312 22.492188-22.492188v-119.980468zm0 0" fill="#fba826"/><path d="m348.9375 489.507812c0 12.421876-10.070312 22.492188-22.492188 22.492188h40.449219c.390625 0 .777344-.011719 1.160157-.027344 1.53125-.078125 3.023437-.3125 4.460937-.679687.71875-.1875 1.425781-.40625 2.113281-.65625.6875-.253907 1.363282-.539063 2.019532-.855469 2.292968-1.105469 4.371093-2.589844 6.152343-4.371094.507813-.507812.992188-1.039062 1.453125-1.59375.226563-.28125.449219-.5625.667969-.851562 1.292969-1.730469 2.34375-3.65625 3.101563-5.722656.253906-.691407.472656-1.394532.65625-2.113282.464843-1.796875.710937-3.679687.710937-5.621094v-119.980468h-40.449219v119.980468zm0 0" fill="#e09721"/><g fill="#495663"><path d="m76.96875 410.984375c-2.949219 0-5.339844 2.390625-5.339844 5.339844v48.867187c0 2.949219 2.390625 5.339844 5.339844 5.339844 2.953125 0 5.34375-2.390625 5.34375-5.339844v-18.199218h33.800781v18.21875c0 2.949218 2.394531 5.339843 5.34375 5.339843s5.339844-2.390625 5.339844-5.339843v-48.867188c0-2.949219-2.390625-5.339844-5.339844-5.339844s-5.34375 2.390625-5.34375 5.339844v19.964844h-33.800781v-19.984375c0-2.949219-2.394531-5.339844-5.34375-5.339844zm0 0"/><path d="m163.132812 470.53125c2.953126 0 5.34375-2.390625 5.34375-5.339844v-43.960937h16.242188c2.832031 0 5.125-2.292969 5.125-5.125 0-2.828125-2.292969-5.121094-5.125-5.121094h-43.171875c-2.828125 0-5.121094 2.292969-5.121094 5.121094 0 2.832031 2.292969 5.125 5.121094 5.125h16.246094v43.960937c0 2.949219 2.390625 5.339844 5.339843 5.339844zm0 0"/><path d="m253.734375 470.53125c2.953125 0 5.34375-2.390625 5.34375-5.339844v-48.867187c0-2.949219-2.390625-5.339844-5.34375-5.339844-4.183594 0-3.585937 2.089844-24.460937 26.734375-20.167969-23.808594-20.226563-26.734375-24.460938-26.734375-2.949219 0-5.34375 2.390625-5.34375 5.339844v48.867187c0 2.949219 2.390625 5.339844 5.34375 5.339844 2.949219 0 5.339844-2.390625 5.339844-5.339844v-34.472656c14.792968 17.011719 14.78125 20.285156 19.121094 20.234375 4.339843.050781 4.3125-3.207031 19.121093-20.234375v34.472656c0 2.949219 2.390625 5.339844 5.339844 5.339844zm0 0"/><path d="m276.703125 410.984375c-2.949219 0-5.34375 2.390625-5.34375 5.339844v48.867187c0 2.949219 2.394531 5.339844 5.34375 5.339844h35.949219c2.828125 0 5.121094-2.292969 5.121094-5.121094s-2.292969-5.125-5.121094-5.125h-30.605469v-43.960937c0-2.949219-2.394531-5.339844-5.34375-5.339844zm0 0"/></g></svg>